<svg data-v-fde0c5aa="" xmlns="http://www.w3.org/2000/svg" viewBox="0 0 300 300" class="iconLeft"><!----><defs data-v-fde0c5aa=""><!----></defs><rect data-v-fde0c5aa="" fill="transparent" x="0" y="0" width="300px" height="300px" class="logo-background-square"></rect><defs data-v-fde0c5aa=""><!----></defs><g data-v-fde0c5aa="" id="e93ee441-3030-4423-9dfc-58cce07e2c70" fill="#000000" transform="matrix(2.2684931773570316,0,0,2.2684931773570316,89.06903909966894,127.76876805177311)"><path d="M10.49 3.08C10.30 3.01 10.15 2.98 10.04 2.98C9.73 2.98 9.59 3.19 9.34 3.56C8.71 4.48 6.09 8.60 5.35 11.45C5.40 9.88 5.64 7.69 5.64 5.94C5.64 3.40 5.14 2.80 4.23 2.80C3.00 2.80 1.50 3.92 1.50 5.15C1.50 5.61 1.71 6.30 2.24 6.30C2.23 6.17 2.21 6.05 2.21 5.87C2.21 4.73 2.76 3.32 3.95 3.32C4.34 3.32 4.42 3.47 4.42 3.68C4.42 3.89 4.34 4.13 4.28 4.26C2.02 9.35 0.07 13.59-0.15 14.10C0.87 14.10 1.68 11.41 4.66 4.45C4.68 4.65 4.69 4.87 4.69 5.24C4.69 6.72 4.47 9.65 4.47 11.19C4.47 12.26 4.58 12.89 5.08 12.89C5.17 12.89 5.18 12.88 5.29 12.84C5.87 11.13 7.70 6.71 9.04 4.98C8.32 7.73 7.64 10.30 7.64 12.53C7.64 13.68 7.83 14.10 8.79 14.10C8.67 13.64 8.58 13.58 8.58 12.95C8.58 11.17 9.27 7.34 9.86 5.04C10.09 4.09 10.35 3.42 10.49 3.08ZM14.73 9.07C14.62 9.04 14.52 9.03 14.43 9.03C13.97 9.03 13.78 9.48 13.72 9.74C13.68 9.97 13.64 10.18 13.58 10.39C13.02 11.31 12.25 12.18 11.72 12.18C11.34 12.18 11.21 11.96 11.21 11.62C11.21 10.86 11.82 9.35 12.14 8.88C12.14 8.71 11.63 8.55 11.52 8.55C11.12 8.55 10.29 10.57 10.29 11.61C10.29 12.39 10.86 12.74 11.41 12.74C12.17 12.74 12.85 11.94 13.45 10.96C13.20 11.98 12.94 12.84 12.67 13.52C11.26 14.24 9.95 14.87 9.95 16.06C9.95 16.55 10.36 16.80 10.84 16.80C11.80 16.80 12.75 15.16 13.48 13.37C14.52 12.89 15.71 12.10 16.13 10.75L15.95 10.61C15.41 11.90 14.50 12.66 13.64 12.99C14.29 11.30 14.73 9.53 14.73 9.07ZM10.77 16.35C10.49 16.35 10.39 16.09 10.39 15.93C10.39 15.01 11.37 14.48 12.53 13.86C11.77 15.71 11.05 16.35 10.77 16.35ZM25.65 3.23C26.12 3.23 26.33 3.49 26.33 3.86C26.33 4.66 25.41 6.03 24.84 6.68C24.95 6.92 25.12 7.00 25.27 7.00C26.04 7.00 26.89 5.11 26.89 4.02C26.89 3.15 26.36 2.81 25.61 2.81C22.95 2.81 19.85 6.99 19.85 10.68C19.85 12.39 20.62 14.10 22.61 14.10C24.49 14.10 26.01 12.59 26.95 10.75L26.75 10.61C26.01 12.21 24.43 13.62 22.95 13.62C21.53 13.62 20.97 12.31 20.97 10.92C20.97 7.77 23.63 3.23 25.65 3.23ZM32.41 10.64C32.05 11.41 31.70 11.70 31.30 11.70C30.81 11.70 30.32 11.26 30.32 10.54C30.32 9.80 30.87 9.13 30.87 8.78C30.87 8.61 30.74 8.23 30.39 8.23C30.35 8.23 30.32 8.23 30.30 8.25C30.21 8.08 30.04 7.95 29.69 7.95C28.03 7.95 26.31 10.63 26.31 12.11C26.31 12.82 26.71 13.33 27.43 13.33C28.41 13.33 29.29 12.38 29.88 11.00C30.16 11.65 30.67 11.98 31.19 11.98C31.65 11.98 32.19 11.72 32.59 10.78ZM27.73 12.73C27.40 12.73 27.20 12.45 27.20 12.01C27.20 10.95 28.34 8.50 29.92 8.50C29.76 8.74 29.65 9.14 29.65 9.77C29.65 10.09 29.68 10.35 29.74 10.57C29.23 11.77 28.36 12.73 27.73 12.73ZM35.77 13.19C35.95 12.81 36.15 12.33 36.44 11.89C37.31 10.56 37.81 9.80 38.28 9.80C38.49 9.80 38.68 9.94 38.68 10.30C38.68 10.85 38.26 11.61 38.26 12.29C38.26 12.85 38.54 13.31 39.20 13.31C40.32 13.31 41.17 11.98 41.62 10.81L41.45 10.61C41.02 11.56 40.35 12.82 39.58 12.82C39.26 12.82 39.16 12.60 39.16 12.35C39.16 11.76 39.68 10.75 39.68 10.01C39.68 9.53 39.47 9.11 38.88 9.11C37.93 9.11 37.14 10.21 36.55 11.27C36.71 10.89 36.99 10.01 36.99 9.30C36.99 8.72 36.81 8.23 36.23 8.23C35.22 8.23 34.03 9.70 33.28 10.89C33.49 10.19 33.64 9.55 33.64 9.30C33.64 9.07 33.52 8.93 33.26 8.93C33.00 8.93 32.73 9.10 32.62 9.23C32.61 10.46 31.65 12.75 31.65 12.96C31.65 13.10 32.14 13.26 32.41 13.26C33.10 11.37 34.78 9.16 35.59 9.16C35.84 9.16 35.94 9.37 35.94 9.69C35.94 10.67 35.06 12.66 35.06 12.91C35.06 13.10 35.55 13.19 35.77 13.19ZM42.92 13.24C44.86 13.24 46.23 11.19 46.23 9.73C46.23 8.78 45.64 8.13 44.81 8.13C43.72 8.13 42.87 9.27 42.39 10.19C42.59 9.28 42.71 8.57 42.71 8.30C42.71 7.98 42.52 7.66 42.04 7.66C41.82 7.66 41.79 7.73 41.78 7.90C41.10 13.51 40.53 13.96 39.87 16.27C39.86 16.32 40.07 16.80 40.31 16.80C40.36 16.80 40.43 16.77 40.47 16.73C40.80 16.42 41.54 13.83 42.20 11.03C42.55 10.22 43.54 8.78 44.52 8.78C45.08 8.78 45.32 9.27 45.32 9.86C45.32 11.28 43.96 12.92 42.46 12.92C42.27 12.92 42.11 12.92 42.11 12.99C42.11 13.10 42.43 13.24 42.92 13.24ZM50.61 9.91C49.92 10.92 48.54 12.96 47.67 12.96C47.42 12.96 47.29 12.80 47.29 12.42C47.29 11.06 48.86 8.46 50.18 8.46C50.68 8.46 50.86 8.82 50.86 9.24C50.86 9.39 50.83 9.58 50.79 9.73C51.20 9.73 51.48 9.59 51.48 9.13C51.48 8.50 50.93 8.08 50.20 8.08C48.38 8.08 46.33 10.71 46.33 12.38C46.33 13.16 46.77 13.54 47.36 13.54C48.05 13.54 48.66 12.99 49.48 11.91C49.45 12.07 49.43 12.21 49.43 12.32C49.43 12.81 49.76 13.30 50.44 13.30C51.44 13.30 52.63 12.26 53.21 10.75L53.07 10.61C52.23 12.10 51.34 12.82 50.83 12.82C50.50 12.82 50.36 12.49 50.36 12.21C50.36 11.54 51.17 10.58 51.17 10.26C51.17 10.05 50.78 9.94 50.61 9.91ZM52.28 12.78C52.43 12.99 52.72 13.09 53.02 13.09C53.75 11.86 55.03 9.63 56.20 9.63C56.52 9.63 56.76 9.80 56.76 10.32C56.76 10.98 56.35 11.69 56.35 12.26C56.35 12.78 56.67 13.16 57.33 13.16C58.38 13.16 59.16 12.17 59.75 10.79L59.60 10.61C59.08 11.65 58.34 12.80 57.64 12.80C57.40 12.80 57.22 12.66 57.22 12.26C57.22 11.58 57.79 10.92 57.79 10.05C57.79 9.42 57.48 8.79 56.76 8.79C55.69 8.79 54.59 10.12 53.84 11.26C54.10 10.49 54.29 9.70 54.29 9.41C54.29 9.18 54.17 9.04 53.91 9.04C53.65 9.04 53.38 9.21 53.27 9.34C53.26 10.56 52.28 12.61 52.28 12.78ZM61.29 8.13C60.34 8.13 59.28 11.00 59.28 12.07C59.28 12.73 59.63 13.24 60.35 13.24C61.45 13.24 62.57 12.36 63.11 10.75L62.99 10.61C62.19 12.21 61.46 12.75 60.83 12.75C60.37 12.75 60.14 12.59 60.14 11.91C60.14 10.60 61.60 8.90 61.60 8.44C61.60 8.25 61.46 8.13 61.29 8.13ZM62.03 6.83C62.48 6.83 62.94 6.43 62.94 6.08C62.94 5.75 62.76 5.64 62.48 5.64C62.03 5.64 61.46 5.98 61.46 6.37C61.46 6.69 61.73 6.83 62.03 6.83ZM68.67 10.64C68.31 11.41 67.96 11.70 67.56 11.70C67.07 11.70 66.58 11.26 66.58 10.54C66.58 9.80 67.13 9.13 67.13 8.78C67.13 8.61 67.00 8.23 66.65 8.23C66.61 8.23 66.58 8.23 66.56 8.25C66.47 8.08 66.30 7.95 65.95 7.95C64.29 7.95 62.57 10.63 62.57 12.11C62.57 12.82 62.97 13.33 63.69 13.33C64.67 13.33 65.55 12.38 66.14 11.00C66.42 11.65 66.93 11.98 67.45 11.98C67.91 11.98 68.45 11.72 68.85 10.78ZM63.99 12.73C63.66 12.73 63.46 12.45 63.46 12.01C63.46 10.95 64.60 8.50 66.18 8.50C66.02 8.74 65.91 9.14 65.91 9.77C65.91 10.09 65.94 10.35 66.00 10.57C65.49 11.77 64.62 12.73 63.99 12.73ZM67.87 12.78C68.03 12.99 68.32 13.09 68.61 13.09C69.34 11.86 70.63 9.63 71.79 9.63C72.11 9.63 72.35 9.80 72.35 10.32C72.35 10.98 71.95 11.69 71.95 12.26C71.95 12.78 72.27 13.16 72.93 13.16C73.98 13.16 74.76 12.17 75.35 10.79L75.19 10.61C74.68 11.65 73.93 12.80 73.23 12.80C73.00 12.80 72.81 12.66 72.81 12.26C72.81 11.58 73.39 10.92 73.39 10.05C73.39 9.42 73.08 8.79 72.35 8.79C71.29 8.79 70.18 10.12 69.44 11.26C69.69 10.49 69.89 9.70 69.89 9.41C69.89 9.18 69.76 9.04 69.51 9.04C69.24 9.04 68.98 9.21 68.87 9.34C68.85 10.56 67.87 12.61 67.87 12.78Z"></path></g><defs data-v-fde0c5aa=""><linearGradient data-v-fde0c5aa="" gradientTransform="rotate(25)" id="4f718e66-ae53-406e-b7ad-f3a37b1a6267" x1="0%" y1="0%" x2="100%" y2="0%"><stop data-v-fde0c5aa="" offset="0%" stop-color="#288642" stop-opacity="1"></stop><stop data-v-fde0c5aa="" offset="100%" stop-color="#27FDFD" stop-opacity="1"></stop></linearGradient></defs><g data-v-fde0c5aa="" id="808f5196-2735-4711-afd5-ecbe2b2b3b94" stroke="none" fill="url(#4f718e66-ae53-406e-b7ad-f3a37b1a6267)" transform="matrix(0.5954794184924018,0,0,0.5954794184924018,28.090411630151962,120.22602907537991)"><path d="M78 10H22c-1.1 0-2 .9-2 2v76c0 1.1.9 2 2 2h56c1.1 0 2-.9 2-2V12c0-1.1-.9-2-2-2zm-2 76H24V72h8.3c.8 2.3 3 4 5.7 4 3.3 0 6-2.7 6-6s-2.7-6-6-6c-2.6 0-4.8 1.7-5.7 4H24V52h8.3c.8 2.3 3 4 5.7 4 3.3 0 6-2.7 6-6s-2.7-6-6-6c-2.6 0-4.8 1.7-5.7 4H24V32h8.3c.8 2.3 3 4 5.7 4 3.3 0 6-2.7 6-6s-2.7-6-6-6c-2.6 0-4.8 1.7-5.7 4H24V14h52v72zM36 70c0-1.1.9-2 2-2s2 .9 2 2-.9 2-2 2-2-.9-2-2zm0-20c0-1.1.9-2 2-2s2 .9 2 2-.9 2-2 2-2-.9-2-2zm0-20c0-1.1.9-2 2-2s2 .9 2 2-.9 2-2 2-2-.9-2-2z"></path></g><!----></svg>